# xmcd
#
# Track frame offsets:
#	150
#	15865
#	34631
#	47587
#	62313
#	75187
#	88137
#	100817
#	115353
#	126564
#	143197
#	156795
#	173802
#	185208
#
# Disc length: 2647 seconds
#
# Revision: 0
# Processed by: cddbd v1.5.2PL0 Copyright (c) Steve Scherf et al.
# Submitted via: EasyCDDAExtractor 16.0.9.1
#
DISCID=ad0a550e
DTITLE=Radio Texas - Soy
DYEAR=2016
DGENRE=Country
TTITLE0=Seis Días en la Ruta
TTITLE1=Soy
TTITLE2=Amor Perverso
TTITLE3=Apuesta por el Rock and Roll
TTITLE4=Este Mundo no esta Sano
TTITLE5=Me Olvide de Olvidarte
TTITLE6=Adiós
TTITLE7=Mi Nena es un Hot Rod
TTITLE8=Faith
TTITLE9=Aliado del Viento
TTITLE10=Corazón de Rock and Roll
TTITLE11=Solitario
TTITLE12=Escapando de la Ley
TTITLE13=Adiós (Reprise)
EXTD=
EXTT0=
EXTT1=
EXTT2=
EXTT3=
EXTT4=
EXTT5=
EXTT6=
EXTT7=
EXTT8=
EXTT9=
EXTT10=
EXTT11=
EXTT12=
EXTT13=
PLAYORDER=
